<svg xmlns="http://www.w3.org/2000/svg" viewBox="0 0 400 1008"><defs><style>.cls-1{fill:#907f40;}.cls-2{fill:#2d3c3c;}.cls-3{fill:#f4c245;}</style></defs><title>drop</title><g id="Layer_2" data-name="Layer 2"><g id="Layer_1-2" data-name="Layer 1"><polygon class="cls-1" points="152 316 224 172 224 388 152 316"/><polygon class="cls-2" points="72 476 144 332 144 548 72 476"/><polygon class="cls-3" points="252 432 152 632 152 332 252 432"/><polygon class="cls-1" points="161 669 136 719 136 644 161 669"/><polygon class="cls-1" points="119 611 144 561 144 636 119 611"/><polygon class="cls-3" points="136 552 88 648 88 504 136 552"/><polygon class="cls-3" points="184 232 84 432 84 132 184 232"/><polygon class="cls-2" points="108 676 128 636 128 696 108 676"/><polygon class="cls-2" points="227 395 252 345 252 420 227 395"/><polygon class="cls-3" points="120 784 144 736 144 808 120 784"/><polygon class="cls-2" points="164 640 200 568 200 676 164 640"/><polygon class="cls-3" points="156 720 180 672 180 744 156 720"/><polygon class="cls-3" points="336 152 236 352 236 52 336 152"/><polygon class="cls-2" points="112 144 184 0 184 216 112 144"/><polygon class="cls-1" points="0 220 72 76 72 292 0 220"/><polygon class="cls-2" points="72 308 24 404 24 260 72 308"/><polygon class="cls-1" points="36 404 72 332 72 440 36 404"/><polygon class="cls-1" points="288 410 263 460 263 385 288 410"/><polygon class="cls-3" points="272 472 296 424 296 496 272 472"/><polygon class="cls-1" points="172 798 154 834 154 780 172 798"/><polygon class="cls-2" points="280 512 262 548 262 494 280 512"/><polygon class="cls-3" points="268 372 316 276 316 420 268 372"/><polygon class="cls-3" points="176 872 188 848 188 884 176 872"/><polygon class="cls-2" points="148 912 136 936 136 900 148 912"/><polygon class="cls-1" points="308 616 320 592 320 628 308 616"/><polygon class="cls-3" points="296 656 284 680 284 644 296 656"/><polygon class="cls-2" points="313.33 693.33 305.33 709.33 305.33 685.33 313.33 693.33"/><polygon class="cls-3" points="280 564 304 516 304 588 280 564"/><polygon class="cls-1" points="341 466 316 516 316 441 341 466"/><polygon class="cls-3" points="180 964 168 988 168 952 180 964"/><polygon class="cls-2" points="160 992 152 1008 152 984 160 992"/><polygon class="cls-1" points="260 588 212 684 212 540 260 588"/><polygon class="cls-3" points="228 692 252 644 252 716 228 692"/><polygon class="cls-2" points="236 724 212 772 212 700 236 724"/><polygon class="cls-2" points="400 292 328 436 328 220 400 292"/><polygon class="cls-3" points="260 768 248 792 248 756 260 768"/><polygon class="cls-2" points="240 820 232 836 232 812 240 820"/><polygon class="cls-1" points="220 784 232 760 232 796 220 784"/><polygon class="cls-1" points="216 856 224 840 224 864 216 856"/><polygon class="cls-3" points="262 894 254 910 254 886 262 894"/><polygon class="cls-2" points="292 780 300 764 300 788 292 780"/></g></g></svg>